<svg
  xmlns="http://www.w3.org/2000/svg"
  viewBox="58 38 186 220"
  width="300"
  height="355"
>
  <path d="M148.743 42.21c1.743-.086 3.627-.025 5.208.777 2.944 1.494 5.953 3.3 8.831 4.932l17.323 9.793c16.927 9.615 33.863 19.212 50.77 28.86 6.724 3.838 5.297 10.2 5.296 16.925l-.002 23.47-.003 45.452.02 14.86c.001 2.727.043 5.51-.058 8.23-.086 2.365-2.22 5.582-4.26 6.779a683 683 0 0 1-10.888 6.233l-16.236 9.313-33.978 19.679-8.73 5.034c-3.232 1.88-7.14 4.53-10.621 5.38-4.371.26-6.115-1.136-9.78-3.323-1.417-.845-2.936-1.71-4.368-2.539l-17.427-10.051-32.497-18.787c-6.29-3.61-12.629-7.164-18.901-10.77-3.092-1.778-4.594-5.219-4.53-8.661.056-3.084.003-6.22.006-9.305l-.002-26.01-.005-43.539-.004-13.433c-.006-5.044-.86-10.732 4.022-14.123 1.091-.758 2.532-1.474 3.7-2.144l7.302-4.18 23.542-13.374 29.142-16.51c4.571-2.587 9.153-5.252 13.751-7.793 1.116-.617 2.142-.902 3.377-1.174" fill="#daa551"/>

  <path d="M149.193 53.508c1.356-.113 3.023.086 4.227.702 2.775 1.42 5.579 3.066 8.291 4.605l15.793 8.97c14.92 8.481 29.848 16.948 44.754 25.453 5.562 3.173 4.137 9.037 4.137 14.782l-.01 22.42.002 40.586.013 12.295c.003 2.46.036 4.923-.058 7.38-.082 2.12-1.44 4.31-3.277 5.37-3.382 1.95-6.782 3.874-10.17 5.818l-20.558 11.873-27.31 15.745c-2.749 1.574-10.534 6.374-13.013 7.013a8.8 8.8 0 0 1-5.374-.472c-1.775-.755-5.974-3.349-7.914-4.464l-16.36-9.405L93.07 205.28c-5.234-3.007-10.477-5.99-15.706-9.013-1.488-.726-3.395-2.91-3.55-4.621-.261-2.866-.142-6.204-.143-9.134v-76.219c.001-4.142-.944-10.028 3.147-12.436 3.874-2.281 7.802-4.497 11.711-6.72l22.6-12.84 23.926-13.554c3.45-1.948 10.71-6.686 14.138-7.235" fill="#0e1f2d"/>

  <path d="M147.96 113.322c1.78 1.527 2.504 1.623 4.262-.103.025 2.275.214 5.539-.19 7.727-.097.527-.803 1.052-1.261 1.3-2.867 1.552-5.913 3.048-8.817 4.526l-19.452 9.911c9.097 4.612 18.443 9.623 27.567 14.068 2.817-1.229 6.652-3.325 9.479-4.771l18.102-9.298c-2.661-1.506-6.07-3.139-8.841-4.56l-14.573-7.55c1.73-1.498 1.783-2.07 1.692-4.248.961.516 1.951 1.002 2.923 1.504 8.406 4.343 16.883 8.577 25.245 13.004 1.076.57 1.286 1.714 1.287 2.842.03 11.671.006 23.346.013 35.018 0 .608-.087 1.27-.285 1.841-1.616 1.54-6.996 4.03-9.183 5.164l-13.045 6.76c-1.954 1.008-11.207 5.978-12.74 6.283-1.66-.397-4.528-2.013-6.124-2.836l-8.547-4.421c-6.284-3.26-12.768-6.328-18.916-9.828-.4-.228-1.187-.622-1.417-1.016-.301-.517-.341-1.446-.367-2.035-.16-3.66-.117-35.827.141-36.509.239-.629 1.094-1.18 1.648-1.519 2.908-1.782 6.201-3.192 9.248-4.753q11.086-5.604 22.107-11.335c-.012-1.7.027-3.461.043-5.166" fill="#20b7fd"/>

  <path d="M180.896 140.238c.25.532.116 29.009.11 31.62-9.272 5.03-19.217 9.919-28.612 14.828-.261-.731-.159-8.51-.157-9.64l.007-22.19c3.404-1.833 7.251-3.678 10.737-5.454zm-61.676-.048c2.09.823 7.238 3.664 9.499 4.825l19.204 9.828-.02 31.867c-3.124-1.508-6.52-3.375-9.626-4.983l-19.11-9.888c-.147-3.714-.031-8.168-.03-11.941q-.045-9.856.084-19.708" fill="#0e1f2d"/>

  <path d="M189.382 171.942c3.756 1.998 8.643 4.145 12.255 6.409.295.184.544.865.67 1.204.036 1.034.111 2.506-.91 3.108-1.696.998-3.55 1.899-5.303 2.8l-11.174 5.778-21.829 11.287c-3.675 1.898-7.344 3.823-11.048 5.667-1.926.958-3.189.391-4.955-.5-2.257-1.142-4.506-2.312-6.758-3.47l-22.023-11.413-13.013-6.708c-2.067-1.06-4.17-2.104-6.232-3.179-.409-.234-.813-.56-1.047-.972-.392-.69-.303-1.559-.196-2.315.198-1.39 1.638-1.982 2.74-2.556.802-.416 1.624-.811 2.435-1.216a494 494 0 0 0 7.481-3.767l.168.029c.233.387.158 4.116.158 4.898a476 476 0 0 1-5.657 2.95c1.6.982 5.211 2.694 6.98 3.603l14.702 7.573 14.922 7.71c2.497 1.288 5.255 2.802 7.837 3.82 1.125.444 5.573-2.143 6.796-2.77l9.49-4.874 29.073-15.013c-1.404-.907-3.993-2.145-5.563-2.943zM135.79 74.579c9.401-.095 19.157-.073 28.56.008l.001 9.52-3.486.036-.016 16.235c.017 1.26-1.276 2.98-2.593 3.07-2.351.163-4.812.145-7.176.099-3.19-.062-6.569.143-9.738-.057-.932-.708-1.383-1.181-2.014-2.134-.13-1.741-.047-4.509-.046-6.321V84.134c-1.144-.028-2.355-.012-3.505-.016q-.048-4.77.013-9.54" fill="#daa551"/>

  <path d="M100.04 189.39c1.847.63 8.733 4.438 10.923 5.57q14.223 7.411 28.36 14.987c2.096 1.127 8.93 5.01 10.728 5.452 1.932-.52 9.476-4.753 11.892-6.042l26.295-13.89c3.416-1.781 6.728-3.581 10.22-5.41 2.523-1.324 4.275.34 3.84 3.049-.167 1.043-1.518 1.778-2.443 2.259l-31.678 16.884-10.24 5.462c-1.997 1.065-4.023 2.185-6.062 3.14-1.485.693-2.05.74-3.604.01-3.134-1.471-6.37-3.297-9.428-4.94l-17.337-9.265-15.397-8.168c-2.207-1.165-4.793-2.382-6.904-3.639-2.386-1.42-1.952-4.484.835-5.46m64.755-101.227c7.156-.227 15.568-.01 22.82-.016l11.434-.01c5.651 0 5.105-.575 10.043 2.244q3.414 1.934 6.792 3.933c-6.136.117-12.602.022-18.761.022l-32.32-.013c-.029-2.038-.008-4.119-.008-6.16m-69.838.018c4.045-.2 9.517-.034 13.701-.034l26.69.009-.005 6.18h-10.319l-40.842-.008c3.066-1.886 7.606-4.455 10.775-6.148m53.003 25.143-.091-.128c-1.218-1.695-3.623-3.442-3.505-5.317l.22-.203c1.43-.018 10.241-.388 11.028.083.117 1.069.083 1.328-.642 2.214-.893 1.093-1.88 2.13-2.748 3.248-1.758 1.726-2.481 1.63-4.263.103" fill="#daa551"/>
</svg>